<svg xmlns="http://www.w3.org/2000/svg" viewBox="0 0 48 48" width="48" height="48">
  <defs>
    <linearGradient id="grad48" x1="0%" y1="0%" x2="100%" y2="100%">
      <stop offset="0%" style="stop-color:#6366f1"/>
      <stop offset="100%" style="stop-color:#10b981"/>
    </linearGradient>
    <filter id="glow48">
      <feGaussianBlur stdDeviation="1" result="coloredBlur"/>
      <feMerge>
        <feMergeNode in="coloredBlur"/>
        <feMergeNode in="SourceGraphic"/>
      </feMerge>
    </filter>
  </defs>
  
  <!-- Shield body -->
  <path fill="url(#grad48)" filter="url(#glow48)" d="M24 4L6 10v12c0 10 7.5 19 18 22 10.5-3 18-12 18-22V10L24 4z"/>
  
  <!-- Inner shield -->
  <path fill="rgba(255,255,255,0.15)" d="M24 8L10 13v9c0 8 5.5 15 14 18 8.5-3 14-10 14-18v-9L24 8z"/>
  
  <!-- Checkmark -->
  <path fill="#ffffff" stroke="#ffffff" stroke-width="1" d="M21 28l-6-6-2 2 8 8 12-12-2-2z"/>
  
  <!-- Highlight -->
  <ellipse cx="18" cy="18" rx="4" ry="6" fill="rgba(255,255,255,0.2)" transform="rotate(-30 18 18)"/>
</svg>
